<?xml version="1.0" encoding="UTF-8"?>
<svg fill="none" viewBox="0 0 20 22" xmlns="http://www.w3.org/2000/svg">
<path d="m19.163 3.399h-4.8883v-2.574c0-0.451-0.3683-0.825-0.8371-0.825h-6.875c-0.45759 0-0.83706 0.374-0.83706 0.825v2.574h-4.8884c-0.45759 0-0.83705 0.363-0.83705 0.825 0 0.451 0.37946 0.825 0.83705 0.825h1.2835v13.871c0 1.705 1.4062 3.08 3.1362 3.08h9.1072c1.7187 0 3.1249-1.375 3.1249-3.08v-13.871h1.6741c0.4576 0 0.8371-0.374 0.8371-0.825 0-0.462-0.3795-0.825-0.8371-0.825zm-12.299 13.266v-8.129c0-0.451 0.37947-0.825 0.83705-0.825 0.46875 0 0.83706 0.374 0.83706 0.825v8.129c0 0.451-0.36831 0.825-0.83706 0.825-0.45758 0-0.83705-0.374-0.83705-0.825zm6.2724 0c0 0.451-0.3795 0.825-0.8371 0.825-0.4687 0-0.837-0.374-0.837-0.825v-8.129c0-0.462 0.3683-0.825 0.837-0.825 0.4576 0 0.8371 0.363 0.8371 0.825v8.129zm-5.7366-15.015h5.2009v1.749h-5.2009v-1.749z" fill="#eee"/>
</svg>
