<?xml version="1.0" encoding="UTF-8"?>
<svg fill="none" viewBox="0 0 22 22" xmlns="http://www.w3.org/2000/svg">
<path d="m21.761 4.312-4.0705-4.07c-0.154-0.154-0.363-0.242-0.5831-0.242-0.22 0-0.429 0.088001-0.583 0.242l-16.271 16.269c-0.15402 0.154-0.23103 0.352-0.24203 0.572l-0.010995 4.092c0 0.22 0.088012 0.429 0.24203 0.583 0.15402 0.154 0.36304 0.242 0.58307 0.242l4.0925-0.011c0.22002 0 0.42905-0.088 0.57207-0.242l16.271-16.269c0.3191-0.319 0.3191-0.847 0-1.166zm-3.6634 2.497c-0.022-0.022-0.022-0.05501-0.0551-0.07701l-2.7723-2.772c-0.022-0.022-0.055-0.03301-0.077-0.05501l1.9142-1.914 2.9044 2.904-1.9142 1.914z" fill="#eee"/>
</svg>
